<svg width="32" height="32" viewBox="0 0 32 32" fill="none" xmlns="http://www.w3.org/2000/svg">
  <!-- Main shield shape -->
  <defs>
    <linearGradient id="shieldGradient" x1="0%" y1="0%" x2="100%" y2="100%">
      <stop offset="0%" style="stop-color:#00D4FF;stop-opacity:1" />
      <stop offset="50%" style="stop-color:#4FFFB0;stop-opacity:1" />
      <stop offset="100%" style="stop-color:#7ED321;stop-opacity:1" />
    </linearGradient>
  </defs>
  
  <!-- Background -->
  <rect width="32" height="32" fill="#1a1a1a" rx="4"/>
  
  <!-- Shield -->
  <path d="M8,6 L8,14 L12,20 L16,22 L20,20 L24,14 L24,6 L8,6 Z" 
        fill="url(#shieldGradient)" 
        opacity="0.9"/>
  
  <!-- Inner shield -->
  <path d="M10,8 L10,13 L13,17 L16,18 L19,17 L22,13 L22,8 L10,8 Z" 
        fill="rgba(0,0,0,0.8)"/>
  
  <!-- Magnifying glass -->
  <circle cx="18" cy="18" r="6" fill="none" stroke="#fff" stroke-width="1.5"/>
  <circle cx="18" cy="18" r="4" fill="rgba(0,0,0,0.9)"/>
  <line x1="22" y1="22" x2="26" y2="26" stroke="#fff" stroke-width="2" stroke-linecap="round"/>
  
  <!-- Network nodes -->
  <circle cx="18" cy="18" r="1" fill="#00D4FF"/>
  <circle cx="15" cy="16" r="0.5" fill="#4FFFB0"/>
  <circle cx="21" cy="16" r="0.5" fill="#7ED321"/>
  <circle cx="16" cy="20" r="0.5" fill="#4FFFB0"/>
  <circle cx="20" cy="20" r="0.5" fill="#00D4FF"/>
  
  <!-- Connections -->
  <line x1="18" y1="18" x2="15" y2="16" stroke="#00D4FF" stroke-width="0.5" opacity="0.8"/>
  <line x1="18" y1="18" x2="21" y2="16" stroke="#4FFFB0" stroke-width="0.5" opacity="0.8"/>
  <line x1="18" y1="18" x2="16" y2="20" stroke="#7ED321" stroke-width="0.5" opacity="0.8"/>
  <line x1="18" y1="18" x2="20" y2="20" stroke="#00D4FF" stroke-width="0.5" opacity="0.8"/>
</svg>
